# xmcd
#
# Track frame offsets: 
#        150
#        12145
#        34567
#        54201
#        73535
#        98390
#        114070
#        137136
#        154685
#        164436
#        189281
#        198519
#        218443
#
# Disc length: 3222 seconds
#
# Revision: 0
# Processed by: cddbd v1.5.1PL2 Copyright (c) Steve Scherf et al.
# Submitted via: ExactAudioCopy v0.95b3
#
DISCID=950c940d
DTITLE=Max Herre - Max Herre
DYEAR=2004
DGENRE=Hip-Hop
TTITLE0=Mein Song
TTITLE1=1ste Liebe
TTITLE2=King vom Prenzlauer Berg
TTITLE3=Playground
TTITLE4=Jerusalem
TTITLE5=Sei Tu
TTITLE6=Wie Du Bist
TTITLE7=Zu Elektrisch
TTITLE8=Epilog Prolog
TTITLE9=Du Weisst (Bye Bye Baby)
TTITLE10=Alter Weg
TTITLE11=Anna'04
TTITLE12=So Easy
EXTD=
EXTT0=
EXTT1=
EXTT2=
EXTT3=
EXTT4=
EXTT5=
EXTT6=
EXTT7=
EXTT8=
EXTT9=
EXTT10=
EXTT11=
EXTT12=
PLAYORDER=
